<svg xmlns="http://www.w3.org/2000/svg" width="760" height="380" viewBox="0 0 760 380" font-family="-apple-system, 'Helvetica Neue', Arial, sans-serif">
<rect width="760" height="380" fill="#fcfcfb"/>
<text x="24.0" y="30.0" font-size="15" fill="#0b0b0b" text-anchor="start" font-weight="600">Capacity, closed loop: requests per second (median of 3)</text>
<line x1="24.0" y1="50.0" x2="42.0" y2="50.0" stroke="#2a78d6" stroke-width="2"/>
<circle cx="33.0" cy="50.0" r="4.5" fill="#2a78d6" stroke="#fcfcfb" stroke-width="2"></circle>
<text x="48.0" y="54.0" font-size="12" fill="#0b0b0b" text-anchor="start" font-weight="normal">Cove, VM</text>
<line x1="114.0" y1="50.0" x2="132.0" y2="50.0" stroke="#1baf7a" stroke-width="2"/>
<circle cx="123.0" cy="50.0" r="4.5" fill="#1baf7a" stroke="#fcfcfb" stroke-width="2"></circle>
<text x="138.0" y="54.0" font-size="12" fill="#0b0b0b" text-anchor="start" font-weight="normal">Cove, native</text>
<line x1="232.0" y1="50.0" x2="250.0" y2="50.0" stroke="#eb6834" stroke-width="2"/>
<circle cx="241.0" cy="50.0" r="4.5" fill="#eb6834" stroke="#fcfcfb" stroke-width="2"></circle>
<text x="256.0" y="54.0" font-size="12" fill="#0b0b0b" text-anchor="start" font-weight="normal">Go</text>
<line x1="70.0" y1="320.0" x2="740.0" y2="320.0" stroke="#e6e5e1" stroke-width="1"/>
<text x="62.0" y="324.0" font-size="11" fill="#52514e" text-anchor="end" font-weight="normal">0</text>
<line x1="70.0" y1="257.5" x2="740.0" y2="257.5" stroke="#e6e5e1" stroke-width="1"/>
<text x="62.0" y="261.5" font-size="11" fill="#52514e" text-anchor="end" font-weight="normal">1,000</text>
<line x1="70.0" y1="195.0" x2="740.0" y2="195.0" stroke="#e6e5e1" stroke-width="1"/>
<text x="62.0" y="199.0" font-size="11" fill="#52514e" text-anchor="end" font-weight="normal">2,000</text>
<line x1="70.0" y1="132.5" x2="740.0" y2="132.5" stroke="#e6e5e1" stroke-width="1"/>
<text x="62.0" y="136.5" font-size="11" fill="#52514e" text-anchor="end" font-weight="normal">3,000</text>
<line x1="70.0" y1="70.0" x2="740.0" y2="70.0" stroke="#e6e5e1" stroke-width="1"/>
<text x="62.0" y="74.0" font-size="11" fill="#52514e" text-anchor="end" font-weight="normal">4,000</text>
<line x1="70.0" y1="320.0" x2="740.0" y2="320.0" stroke="#b9b8b3" stroke-width="1"/>
<rect x="100.8" y="263.3" width="34.0" height="56.7" rx="4" fill="#2a78d6"><title>Cove, VM, crunch c=16: 907 req/s</title></rect>
<text x="117.8" y="257.3" font-size="10" fill="#0b0b0b" text-anchor="middle" font-weight="normal">907</text>
<rect x="136.8" y="146.0" width="34.0" height="174.0" rx="4" fill="#1baf7a"><title>Cove, native, crunch c=16: 2,783 req/s</title></rect>
<text x="153.8" y="140.0" font-size="10" fill="#0b0b0b" text-anchor="middle" font-weight="normal">2,783</text>
<rect x="172.8" y="87.5" width="34.0" height="232.5" rx="4" fill="#eb6834"><title>Go, crunch c=16: 3,720 req/s</title></rect>
<text x="189.8" y="81.5" font-size="10" fill="#0b0b0b" text-anchor="middle" font-weight="normal">3,720</text>
<text x="153.8" y="340.0" font-size="12" fill="#0b0b0b" text-anchor="middle" font-weight="normal">crunch, 16 in flight</text>
<rect x="268.2" y="263.2" width="34.0" height="56.8" rx="4" fill="#2a78d6"><title>Cove, VM, crunch c=64: 909 req/s</title></rect>
<text x="285.2" y="257.2" font-size="10" fill="#0b0b0b" text-anchor="middle" font-weight="normal">909</text>
<rect x="304.2" y="146.4" width="34.0" height="173.6" rx="4" fill="#1baf7a"><title>Cove, native, crunch c=64: 2,778 req/s</title></rect>
<text x="321.2" y="140.4" font-size="10" fill="#0b0b0b" text-anchor="middle" font-weight="normal">2,778</text>
<rect x="340.2" y="89.1" width="34.0" height="230.9" rx="4" fill="#eb6834"><title>Go, crunch c=64: 3,695 req/s</title></rect>
<text x="357.2" y="83.1" font-size="10" fill="#0b0b0b" text-anchor="middle" font-weight="normal">3,695</text>
<text x="321.2" y="340.0" font-size="12" fill="#0b0b0b" text-anchor="middle" font-weight="normal">crunch, 64 in flight</text>
<rect x="435.8" y="298.2" width="34.0" height="21.8" rx="4" fill="#2a78d6"><title>Cove, VM, cpu-io c=64: 348 req/s</title></rect>
<text x="452.8" y="292.2" font-size="10" fill="#0b0b0b" text-anchor="middle" font-weight="normal">348</text>
<rect x="471.8" y="272.0" width="34.0" height="48.0" rx="4" fill="#1baf7a"><title>Cove, native, cpu-io c=64: 768 req/s</title></rect>
<text x="488.8" y="266.0" font-size="10" fill="#0b0b0b" text-anchor="middle" font-weight="normal">768</text>
<rect x="507.8" y="269.8" width="34.0" height="50.2" rx="4" fill="#eb6834"><title>Go, cpu-io c=64: 804 req/s</title></rect>
<text x="524.8" y="263.8" font-size="10" fill="#0b0b0b" text-anchor="middle" font-weight="normal">804</text>
<text x="488.8" y="340.0" font-size="12" fill="#0b0b0b" text-anchor="middle" font-weight="normal">cpu-io, 64 in flight</text>
<rect x="603.2" y="297.4" width="34.0" height="22.6" rx="4" fill="#2a78d6"><title>Cove, VM, cpu-io c=256: 362 req/s</title></rect>
<text x="620.2" y="291.4" font-size="10" fill="#0b0b0b" text-anchor="middle" font-weight="normal">362</text>
<rect x="639.2" y="254.7" width="34.0" height="65.3" rx="4" fill="#1baf7a"><title>Cove, native, cpu-io c=256: 1,044 req/s</title></rect>
<text x="656.2" y="248.7" font-size="10" fill="#0b0b0b" text-anchor="middle" font-weight="normal">1,044</text>
<rect x="675.2" y="234.8" width="34.0" height="85.2" rx="4" fill="#eb6834"><title>Go, cpu-io c=256: 1,364 req/s</title></rect>
<text x="692.2" y="228.8" font-size="10" fill="#0b0b0b" text-anchor="middle" font-weight="normal">1,364</text>
<text x="656.2" y="340.0" font-size="12" fill="#0b0b0b" text-anchor="middle" font-weight="normal">cpu-io, 256 in flight</text>
</svg>
