<svg xmlns="http://www.w3.org/2000/svg" width="760" height="400" viewBox="0 0 760 400" font-family="-apple-system, 'Helvetica Neue', Arial, sans-serif">
<rect width="760" height="400" fill="#fcfcfb"/>
<text x="24.0" y="30.0" font-size="15" fill="#0b0b0b" text-anchor="start" font-weight="600">hello's p99 under the cpu-io mix, four workers (median of 3 runs)</text>
<line x1="24.0" y1="50.0" x2="42.0" y2="50.0" stroke="#2a78d6" stroke-width="2"/>
<circle cx="33.0" cy="50.0" r="4.5" fill="#2a78d6" stroke="#fcfcfb" stroke-width="2"></circle>
<text x="48.0" y="54.0" font-size="12" fill="#0b0b0b" text-anchor="start" font-weight="normal">Cove, VM</text>
<line x1="114.0" y1="50.0" x2="132.0" y2="50.0" stroke="#1baf7a" stroke-width="2"/>
<circle cx="123.0" cy="50.0" r="4.5" fill="#1baf7a" stroke="#fcfcfb" stroke-width="2"></circle>
<text x="138.0" y="54.0" font-size="12" fill="#0b0b0b" text-anchor="start" font-weight="normal">Cove, native</text>
<line x1="70.0" y1="324.0" x2="740.0" y2="324.0" stroke="#e6e5e1" stroke-width="1"/>
<text x="62.0" y="328.0" font-size="11" fill="#52514e" text-anchor="end" font-weight="normal">0 ms</text>
<line x1="70.0" y1="281.7" x2="740.0" y2="281.7" stroke="#e6e5e1" stroke-width="1"/>
<text x="62.0" y="285.7" font-size="11" fill="#52514e" text-anchor="end" font-weight="normal">20 ms</text>
<line x1="70.0" y1="239.3" x2="740.0" y2="239.3" stroke="#e6e5e1" stroke-width="1"/>
<text x="62.0" y="243.3" font-size="11" fill="#52514e" text-anchor="end" font-weight="normal">40 ms</text>
<line x1="70.0" y1="197.0" x2="740.0" y2="197.0" stroke="#e6e5e1" stroke-width="1"/>
<text x="62.0" y="201.0" font-size="11" fill="#52514e" text-anchor="end" font-weight="normal">60 ms</text>
<line x1="70.0" y1="154.7" x2="740.0" y2="154.7" stroke="#e6e5e1" stroke-width="1"/>
<text x="62.0" y="158.7" font-size="11" fill="#52514e" text-anchor="end" font-weight="normal">80 ms</text>
<line x1="70.0" y1="112.3" x2="740.0" y2="112.3" stroke="#e6e5e1" stroke-width="1"/>
<text x="62.0" y="116.3" font-size="11" fill="#52514e" text-anchor="end" font-weight="normal">100 ms</text>
<line x1="70.0" y1="70.0" x2="740.0" y2="70.0" stroke="#e6e5e1" stroke-width="1"/>
<text x="62.0" y="74.0" font-size="11" fill="#52514e" text-anchor="end" font-weight="normal">120 ms</text>
<line x1="70.0" y1="324.0" x2="740.0" y2="324.0" stroke="#b9b8b3" stroke-width="1"/>
<rect x="84.0" y="113.6" width="83.7" height="210.4" rx="4" fill="#2a78d6"><title>VM, no slice at 330 req/s: hello p99 99.4 ms ([99.0, 110.1, 99.4])</title></rect>
<text x="125.8" y="107.6" font-size="11" fill="#0b0b0b" text-anchor="middle" font-weight="normal">99.4 ms</text>
<text x="125.8" y="342.0" font-size="11" fill="#0b0b0b" text-anchor="middle" font-weight="normal">VM, no slice</text>
<rect x="195.7" y="292.7" width="83.7" height="31.3" rx="4" fill="#2a78d6"><title>VM, 2 ms slice at 330 req/s: hello p99 14.8 ms ([14.8, 14.8, 15.1])</title></rect>
<text x="237.5" y="286.7" font-size="11" fill="#0b0b0b" text-anchor="middle" font-weight="normal">14.8 ms</text>
<text x="237.5" y="342.0" font-size="11" fill="#0b0b0b" text-anchor="middle" font-weight="normal">VM, 2 ms slice</text>
<rect x="307.3" y="317.9" width="83.7" height="6.1" rx="4" fill="#1baf7a"><title>native, no slice at 330 req/s: hello p99 2.9 ms ([3.0, 2.9, 2.9])</title></rect>
<text x="349.2" y="311.9" font-size="11" fill="#0b0b0b" text-anchor="middle" font-weight="normal">2.9 ms</text>
<text x="349.2" y="342.0" font-size="11" fill="#0b0b0b" text-anchor="middle" font-weight="normal">native, no slice</text>
<rect x="419.0" y="317.6" width="83.7" height="6.4" rx="4" fill="#1baf7a"><title>native, 2 ms slice at 330 req/s: hello p99 3.0 ms ([2.9, 3.0, 3.0])</title></rect>
<text x="460.8" y="311.6" font-size="11" fill="#0b0b0b" text-anchor="middle" font-weight="normal">3.0 ms</text>
<text x="460.8" y="342.0" font-size="11" fill="#0b0b0b" text-anchor="middle" font-weight="normal">native, 2 ms slice</text>
<rect x="530.7" y="235.3" width="83.7" height="88.7" rx="4" fill="#1baf7a"><title>native, no slice at 990 req/s: hello p99 41.9 ms ([41.9, 36.1, 49.8])</title></rect>
<text x="572.5" y="229.3" font-size="11" fill="#0b0b0b" text-anchor="middle" font-weight="normal">41.9 ms</text>
<text x="572.5" y="342.0" font-size="11" fill="#0b0b0b" text-anchor="middle" font-weight="normal">native, no slice</text>
<rect x="642.3" y="294.2" width="83.7" height="29.8" rx="4" fill="#1baf7a"><title>native, 2 ms slice at 990 req/s: hello p99 14.1 ms ([14.1, 15.5, 12.3])</title></rect>
<text x="684.2" y="288.2" font-size="11" fill="#0b0b0b" text-anchor="middle" font-weight="normal">14.1 ms</text>
<text x="684.2" y="342.0" font-size="11" fill="#0b0b0b" text-anchor="middle" font-weight="normal">native, 2 ms slice</text>
<text x="293.3" y="364.0" font-size="11" fill="#52514e" text-anchor="middle" font-weight="normal">330 req/s (the #588 rate)</text>
<line x1="80.0" y1="350.0" x2="506.7" y2="350.0" stroke="#b9b8b3" stroke-width="1"/>
<text x="628.3" y="364.0" font-size="11" fill="#52514e" text-anchor="middle" font-weight="normal">990 req/s</text>
<line x1="526.7" y1="350.0" x2="730.0" y2="350.0" stroke="#b9b8b3" stroke-width="1"/>
</svg>
